HIERARCHY
ROOT Hips
{
 OFFSET 0.000000 0.000000 0.000000
 CHANNELS 6 Xposition Yposition Zposition Yrotation Xrotation Zrotation
 JOINT Chest
 {
  OFFSET 0.000000 10.080317 -0.001081
  CHANNELS 3 Yrotation Xrotation Zrotation
  JOINT Chest2
  {
   OFFSET 0.000000 11.096852 0.001963
   CHANNELS 3 Yrotation Xrotation Zrotation
   JOINT Chest3
   {
    OFFSET 0.000000 10.026525 0.000000
    CHANNELS 3 Yrotation Xrotation Zrotation
    JOINT Chest4
    {
     OFFSET 0.000000 10.026525 0.000000
     CHANNELS 3 Yrotation Xrotation Zrotation
     JOINT Neck
     {
      OFFSET 0.000000 14.108171 0.000000
      CHANNELS 3 Yrotation Xrotation Zrotation
      JOINT Head
      {
       OFFSET 0.000000 9.333493 0.004668
       CHANNELS 3 Yrotation Xrotation Zrotation
       End Site
       {
        OFFSET 0.000000 17.851786 0.002438
       }
      }
     }
     JOINT RightCollar
     {
      OFFSET -3.071622 7.873185 0.000000
      CHANNELS 3 Yrotation Xrotation Zrotation
      JOINT RightShoulder
      {
       OFFSET -14.378659 0.000000 0.000000
       CHANNELS 3 Yrotation Xrotation Zrotation
       JOINT RightElbow
       {
        OFFSET -30.778728 0.000000 0.000000
        CHANNELS 3 Yrotation Xrotation Zrotation
        JOINT RightWrist
        {
         OFFSET -25.164217 0.000000 0.000000
         CHANNELS 3 Yrotation Xrotation Zrotation
         End Site
         {
          OFFSET -18.796788 0.000000 0.000000
         }
        }
       }
      }
     }
     JOINT LeftCollar
     {
      OFFSET 3.071622 7.873185 0.000000
      CHANNELS 3 Yrotation Xrotation Zrotation
      JOINT LeftShoulder
      {
       OFFSET 14.378659 0.000000 0.000000
       CHANNELS 3 Yrotation Xrotation Zrotation
       JOINT LeftElbow
       {
        OFFSET 30.778728 0.000000 0.000000
        CHANNELS 3 Yrotation Xrotation Zrotation
        JOINT LeftWrist
        {
         OFFSET 25.164217 0.000000 0.000000
         CHANNELS 3 Yrotation Xrotation Zrotation
         End Site
         {
          OFFSET 18.796788 0.000000 0.000000
         }
        }
       }
      }
     }
    }
   }
  }
 }
 JOINT RightHip
 {
  OFFSET -8.194923 0.005295 0.000540
  CHANNELS 3 Yrotation Xrotation Zrotation
  JOINT RightKnee
  {
   OFFSET 0.000000 -42.473320 -0.000511
   CHANNELS 3 Yrotation Xrotation Zrotation
   JOINT RightAnkle
   {
    OFFSET 0.000000 -41.474259 -0.000865
    CHANNELS 3 Yrotation Xrotation Zrotation
    JOINT RightToe
    {
     OFFSET 0.000000 -7.354994 16.712725
     CHANNELS 3 Yrotation Xrotation Zrotation
     End Site
     {
      OFFSET 0.000000 -1.553903 6.764158
     }
    }
   }
  }
 }
 JOINT LeftHip
 {
  OFFSET 8.194923 0.005295 0.000540
  CHANNELS 3 Yrotation Xrotation Zrotation
  JOINT LeftKnee
  {
   OFFSET 0.000000 -42.473320 -0.000511
   CHANNELS 3 Yrotation Xrotation Zrotation
   JOINT LeftAnkle
   {
    OFFSET 0.000000 -41.474259 -0.000865
    CHANNELS 3 Yrotation Xrotation Zrotation
    JOINT LeftToe
    {
     OFFSET 0.000000 -7.354994 16.712725
     CHANNELS 3 Yrotation Xrotation Zrotation
     End Site
     {
      OFFSET 0.000000 -1.553903 6.764158
     }
    }
   }
  }
 }
}
MOTION
Frames: 11
Frame Time: 0.016667
0.000000 91.111157 0.000000 0.000000 -5.826342 0.000000 0.000000 11.116423 0.000000 0.000000 -5.290081 0.000000 0.000000 0.000000 0.000000 0.000000 0.000000 0.000000 0.000000 12.665069 0.000000 0.000000 0.575450 0.000000 0.000000 0.000000 0.000000 0.000000 0.000000 0.000000 2.337306 0.000000 0.000000 -2.337306 0.000000 0.000000 0.000000 0.000000 0.000000 0.000000 0.000000 0.000000 -2.337306 0.000000 0.000000 2.337306 0.000000 0.000000 0.000000 8.578828 0.000000 0.000000 1.905768 0.000000 0.000000 -4.658254 0.000000 0.000000 0.000000 0.000000 0.000000 8.578828 0.000000 0.000000 1.905768 0.000000 0.000000 -4.658254 0.000000 0.000000 0.000000 0.000000
180.876050 96.419131 -392.006720 -33.459152 13.466683 29.678059 -1.348852 7.574520 8.612648 -0.739025 3.340734 3.843677 -0.739025 3.340734 3.843677 -0.575171 2.501026 2.885989 -6.811687 9.117940 -5.063709 -10.898988 -19.322093 -6.636261 11.758562 -6.005374 7.459816 -18.607936 -34.134349 20.484411 61.640427 10.939257 0.258359 14.227049 5.355683 -43.973585 -5.169551 -1.419375 -8.120647 -1.747682 -11.340126 -70.066921 -30.692974 -18.046841 -46.358505 -11.764586 -2.592832 26.170500 -9.288102 -31.137338 -24.676993 2.293295 10.476350 -1.016782 -19.187488 -2.168437 -2.165840 -0.001121 0.006151 0.020477 13.313224 -1.723190 -11.360101 8.750529 11.449379 -3.208105 -17.999532 28.007520 -40.832715 3.884158 -10.736881 16.258098
180.903072 96.420350 -392.028742 -33.429937 13.421120 29.677205 -1.348829 7.578088 8.606121 -0.738965 3.342350 3.839601 -0.738965 3.342350 3.839601 -0.575114 2.502243 2.882933 -6.801493 9.115414 -5.051197 -10.885114 -19.326351 -6.616562 11.799709 -5.887697 7.470534 -18.632028 -34.248736 20.469037 61.532521 10.934577 0.257044 14.279455 5.344809 -44.050839 -5.165137 -1.403061 -8.130383 -1.740222 -11.344646 -70.080002 -30.734398 -18.034199 -46.356618 -11.784005 -2.581196 26.197834 -9.422397 -31.146057 -24.646482 2.217481 10.436920 -1.013517 -19.118291 -2.142790 -2.194771 -0.001785 0.006168 0.020156 13.334150 -1.681133 -11.336349 8.782444 11.458824 -3.222774 -18.008052 27.907116 -40.812732 3.933447 -10.545602 16.293618
180.926135 96.421340 -392.047687 -33.401070 13.371129 29.656600 -1.355023 7.582431 8.599360 -0.741717 3.344008 3.833199 -0.741717 3.344008 3.833199 -0.577152 2.503477 2.878150 -6.785687 9.116811 -5.036554 -10.861206 -19.323312 -6.595566 11.870515 -5.774146 7.499992 -18.679610 -34.385129 20.473902 61.387833 10.964861 0.238742 14.358049 5.287516 -44.031633 -5.156578 -1.365842 -8.156136 -1.750524 -11.369981 -70.076999 -30.764915 -18.044870 -46.341676 -11.803823 -2.566542 26.198560 -9.632691 -31.154835 -24.580052 2.138238 10.372903 -0.981970 -18.921758 -2.111282 -2.239860 -0.002315 0.002917 0.014040 13.406242 -1.627927 -11.297433 8.851786 11.535471 -3.225843 -18.001348 27.661574 -40.742149 4.006638 -10.219856 16.344382
180.945169 96.420026 -392.070833 -33.358783 13.319494 29.615197 -1.358808 7.574347 8.597844 -0.743343 3.340894 3.825298 -0.743343 3.340894 3.825298 -0.578309 2.501140 2.872232 -6.773177 9.138070 -5.015458 -10.846472 -19.283138 -6.561265 11.922061 -5.605218 7.536190 -18.694743 -34.559286 20.490240 61.167119 10.991105 0.222261 14.474250 5.229574 -44.072679 -5.179343 -1.342318 -8.168383 -1.757654 -11.376140 -70.085259 -30.784588 -18.057118 -46.314348 -11.823676 -2.538160 26.209113 -9.902719 -31.164443 -24.481962 2.012657 10.286938 -0.933900 -18.613373 -2.072463 -2.306126 -0.002300 -0.001955 0.011074 13.472823 -1.571785 -11.209816 9.022410 11.692049 -3.273655 -17.885560 27.163350 -40.557821 3.786973 -6.491181 13.025447
180.950038 96.409037 -392.102275 -33.322741 13.265326 29.511540 -1.359991 7.555266 8.618266 -0.745911 3.332450 3.817944 -0.745911 3.332450 3.817944 -0.580141 2.494799 2.866727 -6.757570 9.179509 -4.988513 -10.828089 -19.205346 -6.517934 11.963080 -5.395363 7.561671 -18.709506 -34.760600 20.594062 60.841391 11.059975 0.157712 14.644272 5.121471 -44.011193 -5.210987 -1.299580 -8.174532 -1.760542 -11.391053 -70.119006 -30.804133 -18.059186 -46.262200 -11.843890 -2.535680 26.238882 -10.287384 -31.182424 -24.272720 1.924974 10.199849 -0.866713 -18.352891 -2.044268 -2.383387 -0.002214 -0.008018 0.001667 13.533466 -1.507512 -11.041687 9.268643 11.963330 -3.383360 -17.513394 26.286697 -40.159696 3.411112 -3.588977 10.365387
180.939379 96.390900 -392.131955 -33.323266 13.207682 29.381435 -1.354772 7.535334 8.616808 -0.745815 3.323253 3.808109 -0.745815 3.323253 3.808109 -0.579959 2.487913 2.859344 -6.735572 9.236807 -4.949807 -10.802525 -19.097719 -6.455406 11.998499 -5.148756 7.585614 -18.687367 -34.978061 20.722975 60.384407 11.087145 0.045423 14.790624 5.040515 -43.875925 -5.224058 -1.256885 -8.189526 -1.779201 -11.381916 -70.138006 -30.803509 -18.063876 -46.222156 -11.875280 -2.553922 26.254476 -10.714456 -31.202953 -24.013361 1.828177 10.134253 -0.798779 -18.009743 -2.035643 -2.469312 0.000711 -0.012066 -0.004498 13.634754 -1.401402 -10.832060 9.477370 12.375925 -3.561554 -16.755742 24.890533 -39.475638 2.998384 -1.261420 8.226441
180.910954 96.367066 -392.158645 -33.373310 13.136433 29.200054 -1.349881 7.517787 8.605891 -0.746742 3.313609 3.794393 -0.746742 3.313609 3.794393 -0.580520 2.480690 2.849058 -6.707802 9.313616 -4.910259 -10.765657 -18.953966 -6.394904 12.058498 -4.929727 7.621411 -18.694633 -35.163195 20.779460 59.876353 10.957199 0.074425 15.099173 5.037265 -43.575031 -5.210174 -1.186812 -8.203180 -1.796094 -11.373717 -70.160361 -30.838883 -18.043430 -46.187112 -11.894026 -2.542169 26.305892 -11.239742 -31.206358 -23.651173 1.746897 10.057932 -0.745428 -17.599380 -2.025603 -2.555111 0.001336 -0.017359 -0.013136 13.753754 -1.206445 -10.579319 9.759701 12.825629 -3.796315 -15.693112 23.034323 -38.447913 2.587317 0.652908 6.463911
180.864136 96.342172 -392.178318 -33.439407 13.044607 29.004963 -1.335681 7.502191 8.561657 -0.741814 3.304813 3.775614 -0.741814 3.304813 3.775614 -0.576669 2.474145 2.834945 -6.694866 9.393136 -4.868798 -10.758593 -18.804905 -6.323774 12.071933 -4.708026 7.672130 -18.743106 -35.258969 20.831506 59.392654 10.737645 0.291239 15.972684 5.251031 -44.030907 -5.222962 -1.108997 -8.212076 -1.813159 -11.383569 -70.166277 -30.861600 -18.028572 -46.161748 -11.905311 -2.530739 26.331147 -11.923836 -31.213432 -23.185268 1.847465 9.966308 -0.707089 -17.253037 -2.011146 -2.632005 0.003093 -0.025256 -0.020521 13.840758 -0.876642 -10.261785 10.234627 13.208820 -4.114901 -14.552318 20.889049 -37.189710 2.226085 2.194487 5.005836
180.802430 96.316471 -392.197164 -33.508602 12.940372 28.803049 -1.296068 7.489951 8.495354 -0.723589 3.300091 3.753080 -0.723589 3.300091 3.753080 -0.562853 2.470741 2.817947 -6.713601 9.458817 -4.828786 -10.812865 -18.681102 -6.239911 11.971877 -4.423246 7.682770 -18.941079 -35.164891 21.054679 59.228811 10.045051 0.591070 17.676104 5.521047 -44.731388 -5.277376 -1.074141 -8.216944 -1.874772 -11.374317 -70.183795 -30.913018 -18.014043 -46.084305 -11.904093 -2.523673 26.357354 -12.630399 -31.221558 -22.685914 2.026862 9.922360 -0.691921 -16.955213 -2.022385 -2.689948 0.004984 -0.031419 -0.024426 13.937680 -0.435257 -9.945772 11.027987 13.561270 -4.410959 -13.439837 18.486832 -35.608538 1.873847 3.498094 3.695631
180.734958 96.291369 -392.211624 -33.568136 12.811593 28.602307 -1.214010 7.489049 8.402337 -0.687724 3.300337 3.722288 -0.687724 3.300337 3.722288 -0.535795 2.471178 2.794665 -6.773482 9.490465 -4.787661 -10.948571 -18.619637 -6.132940 11.709786 -4.077248 7.677698 -19.469134 -34.967517 21.676403 59.848714 9.512420 1.051593 19.477240 5.713237 -45.431744 -5.396626 -1.095271 -8.209059 -1.967782 -11.377190 -70.160514 -30.937609 -17.995140 -46.022116 -11.923162 -2.532079 26.388151 -13.228756 -31.167170 -22.246452 2.100572 9.902013 -0.697081 -16.665773 -2.048587 -2.738915 0.003024 -0.033922 -0.021684 14.112712 0.115606 -9.611651 11.824153 13.891556 -4.723639 -12.328525 16.046739 -33.760858 1.490760 4.469977 2.440666
